<svg width="92" height="92" fill="none" xmlns="http://www.w3.org/2000/svg">
  <path d="M36.7308 78.8114c-.4736-.2036-.8671-.562-1.1185-1.0187a2.3942 2.3942 0 0 1-.27-1.5034l4.2119-27.9318H28.3765a2.2785 2.2785 0 0 1-1.0283-.2143 2.319 2.319 0 0 1-.8296-.655 2.3738 2.3738 0 0 1-.4602-.9608 2.401 2.401 0 0 1 .0038-1.0691l6.9427-30.6425c.1222-.5273.419-.9957.8405-1.3263a2.2868 2.2868 0 0 1 1.4738-.4887h23.1423a2.2796 2.2796 0 0 1 .9997.2275c.3123.1509.5876.3712.8054.6447.2209.2765.3773.6005.4574.9476.0802.347.082.7081.0054 1.0559l-4.0036 18.3384h10.9926a2.2834 2.2834 0 0 1 1.2272.3557c.3683.2334.6648.5675.8556.9642a2.397 2.397 0 0 1 .1849 1.2136 2.3821 2.3821 0 0 1-.4395 1.1436l-30.085 40.0709a2.3296 2.3296 0 0 1-.7924.741A2.282 2.282 0 0 1 37.6334 79a2.4828 2.4828 0 0 1-.9026-.1886Zm14.2094-39.8823 4.6285-21.214H37.1705l-5.8781 25.9282h13.6771l-3.6796 24.2311 21.8-28.9453H50.9402Z" fill="#EC7979"/>
  <circle cx="46" cy="46" r="45.5" stroke="#EC7979"/>
</svg>
