<svg width="92" height="92" fill="none" xmlns="http://www.w3.org/2000/svg">
  <path d="M71.5733 23c1.9697 0 3.8587.7786 5.2515 2.1645 1.3929 1.386 2.1753 3.2657 2.1753 5.2257v31.2196c0 1.96-.7824 3.8397-2.1753 5.2257C75.432 68.2214 73.543 69 71.5733 69H20.427a7.461 7.461 0 0 1-2.8422-.5625 7.4303 7.4303 0 0 1-2.4094-1.602 7.389 7.389 0 0 1-1.6099-2.3976 7.3573 7.3573 0 0 1-.5654-2.8281V30.3902c0-1.96.7825-3.8397 2.1753-5.2257C16.5682 23.7786 18.4573 23 20.427 23h51.1463Zm0 4.9268H20.427a2.4815 2.4815 0 0 0-1.7505.7215 2.4573 2.4573 0 0 0-.7251 1.7419v31.2196c0 1.3598 1.109 2.4634 2.4756 2.4634h51.1463a2.4819 2.4819 0 0 0 1.7505-.7215 2.4573 2.4573 0 0 0 .7251-1.7419V30.3902a2.4573 2.4573 0 0 0-.7251-1.7419 2.4819 2.4819 0 0 0-1.7505-.7215ZM28.679 54.2031h34.6587a2.4823 2.4823 0 0 1 1.6893.6634 2.4581 2.4581 0 0 1 .7798 1.6321 2.4551 2.4551 0 0 1-.5494 1.7225 2.4789 2.4789 0 0 1-1.583.8859l-.3367.023H28.679a2.4823 2.4823 0 0 1-1.6893-.6634 2.459 2.459 0 0 1-.7798-1.6321 2.4556 2.4556 0 0 1 .5495-1.7225 2.4786 2.4786 0 0 1 1.583-.8859l.3366-.023h34.6587H28.679Zm32.1831-11.4959a3.309 3.309 0 0 1 2.334.9621 3.2759 3.2759 0 0 1 .9668 2.3225 3.276 3.276 0 0 1-.9668 2.3225 3.309 3.309 0 0 1-2.334.962c-.8754 0-1.715-.346-2.3341-.962a3.2764 3.2764 0 0 1-.9667-2.3225c0-.8711.3477-1.7066.9667-2.3225a3.3094 3.3094 0 0 1 2.3341-.9621Zm-19.7885 0a3.309 3.309 0 0 1 2.3341.9621 3.2763 3.2763 0 0 1 .9668 2.3225 3.2765 3.2765 0 0 1-.9668 2.3225 3.309 3.309 0 0 1-2.3341.962 3.309 3.309 0 0 1-2.334-.962 3.2765 3.2765 0 0 1-.9668-2.3225c0-.8711.3478-1.7066.9668-2.3225a3.309 3.309 0 0 1 2.334-.9621Zm-9.9024 0a3.309 3.309 0 0 1 2.334.9621 3.2763 3.2763 0 0 1 .9668 2.3225 3.2765 3.2765 0 0 1-.9668 2.3225 3.309 3.309 0 0 1-2.334.962c-.8755 0-1.715-.346-2.3341-.962a3.2765 3.2765 0 0 1-.9668-2.3225c0-.8711.3478-1.7066.9668-2.3225a3.3093 3.3093 0 0 1 2.3341-.9621Zm19.8049 0c.8754 0 1.715.3461 2.3341.9621a3.2762 3.2762 0 0 1 .9667 2.3225 3.2764 3.2764 0 0 1-.9667 2.3225 3.3093 3.3093 0 0 1-2.3341.962 3.309 3.309 0 0 1-2.334-.962 3.2765 3.2765 0 0 1-.9668-2.3225c0-.8711.3478-1.7066.9668-2.3225a3.309 3.309 0 0 1 2.334-.9621Zm-24.7727-9.8536c.8755 0 1.715.3461 2.3341.962.619.616.9667 1.4515.9667 2.3226a3.2764 3.2764 0 0 1-.9667 2.3225 3.3092 3.3092 0 0 1-2.3341.962 3.309 3.309 0 0 1-2.334-.962 3.2765 3.2765 0 0 1-.9668-2.3225c0-.8711.3478-1.7066.9668-2.3226a3.3094 3.3094 0 0 1 2.334-.962Zm9.886 0c.8754 0 1.715.3461 2.334.962a3.2763 3.2763 0 0 1 .9668 2.3226 3.276 3.276 0 0 1-.9668 2.3225 3.309 3.309 0 0 1-2.334.962 3.309 3.309 0 0 1-2.334-.962 3.276 3.276 0 0 1-.9668-2.3225c0-.8711.3477-1.7066.9668-2.3226a3.3094 3.3094 0 0 1 2.334-.962Zm9.9025 0c.8754 0 1.715.3461 2.334.962.619.616.9668 1.4515.9668 2.3226a3.2765 3.2765 0 0 1-.9668 2.3225 3.309 3.309 0 0 1-2.334.962c-.8755 0-1.715-.346-2.3341-.962a3.2765 3.2765 0 0 1-.9668-2.3225c0-.8711.3478-1.7066.9668-2.3226a3.3096 3.3096 0 0 1 2.3341-.962Zm9.9024 0c.8755 0 1.7151.3461 2.3341.962.619.616.9668 1.4515.9668 2.3226a3.2765 3.2765 0 0 1-.9668 2.3225 3.309 3.309 0 0 1-2.3341.962 3.309 3.309 0 0 1-2.334-.962 3.2765 3.2765 0 0 1-.9668-2.3225c0-.8711.3478-1.7066.9668-2.3226a3.3094 3.3094 0 0 1 2.334-.962Zm9.9025 0c.8755 0 1.715.3461 2.3341.962.619.616.9667 1.4515.9667 2.3226a3.2764 3.2764 0 0 1-.9667 2.3225 3.3092 3.3092 0 0 1-2.3341.962 3.309 3.309 0 0 1-2.334-.962 3.2765 3.2765 0 0 1-.9668-2.3225c0-.8711.3478-1.7066.9668-2.3226a3.3094 3.3094 0 0 1 2.334-.962Z" fill="#EC7979"/>
  <circle cx="46.0001" cy="46" r="45.5" stroke="#EC7979"/>
</svg>
