<svg width="92" height="92" fill="none" xmlns="http://www.w3.org/2000/svg"><path d="M37.5232 64.1362h16.9501-16.9501ZM46 13.3549v3.6272-3.6272Zm23.0838 9.5614-2.5645 2.5644 2.5645-2.5644ZM78.6452 46h-3.6273 3.6273Zm-61.6631 0h-3.6272 3.6272Zm8.4986-20.5193-2.5644-2.5644 2.5644 2.5644Zm7.6934 33.3452a18.1357 18.1357 0 0 1-3.9293-19.764A18.1357 18.1357 0 0 1 46 27.8672a18.1358 18.1358 0 0 1 16.7552 11.1947 18.1355 18.1355 0 0 1-3.9293 19.764L56.8382 60.81a12.2378 12.2378 0 0 0-3.5837 8.6546v1.9261a7.2545 7.2545 0 0 1-14.509 0v-1.9261a12.2454 12.2454 0 0 0-3.5837-8.6546l-1.9877-1.9841Z" stroke="#EC7979" stroke-width="6.8333" stroke-linecap="round" stroke-linejoin="round"/><circle cx="46" cy="46" r="45.5" stroke="#EC7979"/></svg>