<svg width="120" height="120" xmlns="http://www.w3.org/2000/svg" fill="none" style="background-color: black">

 <g>
  <title>Layer 1</title>
  <g stroke="null" id="svg_3">
   <path stroke="null" id="svg_1" fill="#fff" d="m16.61294,41.55882l7.28259,0l13.57271,36.88235l-7.37647,0l-3.43341,-9.19376l-12.89541,0l-3.38647,9.19376l-7.37647,0l13.61294,-36.88235zm8.73776,22.64576l-5.09647,-15.22235l-5.29765,15.22235l10.39412,0zm20.00365,-22.64576l9.15353,13.61294l9.09318,-13.61294l7.79894,0l-12.78812,18.70271l12.37235,18.17965l-7.79894,0l-8.67741,-13.08988l-8.73106,13.08988l-7.85259,0l12.37235,-18.17965l-12.78812,-18.70271l7.84588,0z"/>
   <path stroke="null" id="svg_2" fill="#EC7979" d="m74.75294,78.44117l0,-36.88235l7.13506,0l0,36.88235l-7.13506,0zm42.24706,-30.59894l-11.73529,0l0,30.59894l-7.08141,0l0,-30.59894l-11.73529,0l0,-6.28341l30.552,0l0,6.28341z"/>
  </g>
 </g>
</svg>