<svg width="70" height="70" fill="none" xmlns="http://www.w3.org/2000/svg">
  <path fill-rule="evenodd" clip-rule="evenodd" d="M35.0754 5.8334c-16.0679 0-29.0909 13.0229-29.0909 29.0908 0 12.8508 8.333 23.7563 19.8946 27.6063 1.4554.2625 1.9804-.633 1.9804-1.403 0-.6912-.0233-2.5229-.032-4.9466-8.0938 1.7558-9.803-3.9025-9.803-3.9025-1.3183-3.36-3.2287-4.2554-3.2287-4.2554-2.6396-1.8055.2012-1.7646.2012-1.7646 2.9225.2041 4.4538 2.9983 4.4538 2.9983 2.5958 4.445 6.8133 3.1617 8.4642 2.4179.2654-1.8812 1.0237-3.1646 1.852-3.8908-6.4575-.7321-13.2475-3.2288-13.2475-14.3792 0-3.1704 1.1346-5.7721 2.9867-7.8021-.2946-.7379-1.3008-3.6983.2888-7.7 0 0 2.4412-.7845 7.9975 2.978a27.9422 27.9422 0 0 1 7.28-.98 27.8618 27.8618 0 0 1 7.28.98c5.5591-3.7655 7.9975-2.978 7.9975-2.978 1.5895 4.0017.592 6.9621.2887 7.7 1.8667 2.03 2.9867 4.6288 2.9867 7.8021 0 11.1796-6.7959 13.6354-13.2767 14.3559 1.0354.8983 1.9688 2.6716 1.9688 5.3841 0 3.8909-.035 7.0292-.035 7.9829 0 .7788.5191 1.683 2.0037 1.3971 11.5558-3.8558 19.88-14.7525 19.88-27.6004 0-16.0679-13.0229-29.0908-29.0908-29.0908Z" fill="#CCC"/>
</svg>
