<svg width="70" height="70" fill="none" xmlns="http://www.w3.org/2000/svg">
  <path d="M61.0956 24.2228a19.0481 19.0481 0 0 0-1.2221-6.4633 13.446 13.446 0 0 0-7.6796-7.6796 19.2672 19.2672 0 0 0-6.3758-1.225c-2.8059-.1254-3.6955-.1604-10.818-.1604s-8.0354 0-10.8208.1604a19.2671 19.2671 0 0 0-6.3729 1.225 13.4361 13.4361 0 0 0-7.6796 7.6796 19.1153 19.1153 0 0 0-1.222 6.3729c-.1255 2.8087-.1634 3.6983-.1634 10.8208 0 7.1225 0 8.0325.1633 10.8208a19.2373 19.2373 0 0 0 1.2221 6.3788 13.4455 13.4455 0 0 0 7.6825 7.6767 19.2063 19.2063 0 0 0 6.3729 1.3125c2.8088.1254 3.6984.1633 10.8209.1633 7.1225 0 8.0354 0 10.8208-.1633a19.2234 19.2234 0 0 0 6.3758-1.2221 13.4613 13.4613 0 0 0 7.6796-7.6796c.7671-2.0417 1.1783-4.1942 1.2221-6.3788.1254-2.8058.1633-3.6954.1633-10.8208-.0058-7.1225-.0058-8.0267-.1691-10.8179Zm-26.113 24.1996c-7.4491 0-13.4837-6.0346-13.4837-13.4838 0-7.4491 6.0346-13.4837 13.4837-13.4837a13.4837 13.4837 0 1 1 0 26.9675Zm14.0205-24.3221a3.1405 3.1405 0 0 1-2.2242-.9201 3.1421 3.1421 0 0 1-.92-2.2241 3.1431 3.1431 0 0 1 1.94-2.9035 3.1436 3.1436 0 0 1 2.4054 0 3.1436 3.1436 0 0 1 1.94 2.9035c0 1.7384-1.4058 3.1442-3.1412 3.1442Z" fill="#CCC"/>
  <path d="M34.9829 43.6974c4.8373 0 8.7587-3.9214 8.7587-8.7587 0-4.8373-3.9214-8.7588-8.7587-8.7588-4.8373 0-8.7587 3.9215-8.7587 8.7588 0 4.8373 3.9214 8.7587 8.7587 8.7587Z" fill="#CCC"/>
</svg>
