<svg width="70" height="70" fill="none" xmlns="http://www.w3.org/2000/svg">
  <path d="M58.3333 8.75H11.6667A2.9167 2.9167 0 0 0 8.75 11.6667v46.6666a2.9164 2.9164 0 0 0 2.9167 2.9167h46.6666a2.9164 2.9164 0 0 0 2.9167-2.9167V11.6667A2.9167 2.9167 0 0 0 58.3333 8.75ZM24.3221 53.4829h-7.7934V28.4287h7.7934v25.0542Zm-3.8967-28.4754a4.5153 4.5153 0 0 1-4.515-4.515 4.515 4.515 0 1 1 4.515 4.515Zm33.0604 28.4754h-7.7846V41.3c0-2.905-.0524-6.6412-4.0483-6.6412-4.0541 0-4.6696 3.1675-4.6696 6.437v12.39h-7.7787V28.4317h7.4667v3.4241h.1079c1.0354-1.9687 3.5787-4.0454 7.3616-4.0454 7.8867 0 9.3421 5.1859 9.3421 11.935v13.7375h.0029Z" fill="#CCC"/>
</svg>
