<svg width="270" height="100" fill="none" xmlns="http://www.w3.org/2000/svg">
  <path d="M20.3089 23H31.161l20.2314 55H40.3853l-5.116-13.7113H16.0456L11.0071 78H0l20.3089-55Zm13.0225 33.7747L25.735 34.0775l-7.9066 22.6972h15.503ZM63.165 23l13.6426 20.2958L90.3728 23H102L82.9313 50.8873 101.38 78H89.7526l-12.945-19.5211L63.7851 78H52.0804l18.4485-27.1127L51.4602 23H63.165Z" fill="#fff"/>
  <path d="M107 78V23h10.64v55H107Zm63-45.6268h-17.501V78h-10.563V32.3732h-17.501V23H170v9.3732Z" fill="#EC7979"/>
</svg>
