<svg width="70" height="70" fill="none" xmlns="http://www.w3.org/2000/svg">
  <path d="M26.3667 62.8251c2.8.8458 5.6291 1.3416 8.6333 1.3416A29.1668 29.1668 0 1 0 5.8333 35c0 12.3959 7.7875 23.0417 18.7834 27.2417-.2625-2.275-.525-6.0375 0-8.6333L27.9708 39.2s-.8458-1.6916-.8458-4.375c0-4.025 2.5083-7.0291 5.3667-7.0291 2.5083 0 3.675 1.8375 3.675 4.2 0 2.5083-1.6625 6.0958-2.5084 9.5375-.4958 2.8583 1.5167 5.3666 4.4334 5.3666 5.1916 0 9.2166-5.5416 9.2166-13.3583 0-7-5.0166-11.7833-12.2208-11.7833-8.225 0-13.0667 6.125-13.0667 12.5708 0 2.5083.8167 5.0458 2.1584 6.7083.2625.175.2625.4084.175.8459l-.8459 3.1791c0 .4959-.3208.6709-.8166.3209C18.9583 43.75 16.8 38.4417 16.8 34.1542c0-9.2167 6.5333-17.5875 19.1333-17.5875 10.0334 0 17.8501 7.2042 17.8501 16.7708 0 10.0334-6.2125 18.0834-15.1084 18.0834-2.8292 0-5.6-1.5167-6.5917-3.2959l-1.9541 6.9125c-.6709 2.5084-2.5084 5.8625-3.7625 7.875v-.0874Z" fill="#CCC"/>
</svg>
