<svg width="70" height="70" fill="none" xmlns="http://www.w3.org/2000/svg">
  <path d="M57.2629 23.3247c.0379.5104.0379 1.0179.0379 1.5254 0 15.5312-11.8212 33.4279-33.425 33.4279-6.6558 0-12.8392-1.9279-18.0425-5.2762.945.1079 1.855.1458 2.838.1458a23.5372 23.5372 0 0 0 14.5862-5.0196 11.7717 11.7717 0 0 1-10.9871-8.1462c.7262.1079 1.4554.1808 2.2196.1808 1.0529 0 2.1116-.1458 3.0946-.3996a11.7455 11.7455 0 0 1-9.4209-11.5296v-.1458c1.5663.8721 3.3834 1.4175 5.3084 1.4904a11.7308 11.7308 0 0 1-5.2384-9.7825c0-2.1817.5804-4.1825 1.5984-5.9267a33.416 33.416 0 0 0 24.2258 12.2938c-.1808-.875-.2917-1.7821-.2917-2.6921a11.7427 11.7427 0 0 1 11.7484-11.7483c3.3833 0 6.437 1.4175 8.5837 3.71a23.2084 23.2084 0 0 0 7.455-2.8379 11.7255 11.7255 0 0 1-5.1654 6.475 23.5497 23.5497 0 0 0 6.7637-1.82 25.2158 25.2158 0 0 1-5.8887 6.0754Z" fill="#CCC"/>
</svg>
